<svg xmlns="http://www.w3.org/2000/svg" width="800" height="1000" viewBox="0 0 800 1000">
  <defs>
    <linearGradient id="bg" x1="0" y1="0" x2="1" y2="1">
      <stop offset="0" stop-color="#0c0a1f"/>
      <stop offset="1" stop-color="#1d1145"/>
    </linearGradient>
    <radialGradient id="glowA" cx="0.32" cy="0.3" r="0.62">
      <stop offset="0" stop-color="#7c5cf6" stop-opacity="0.9"/>
      <stop offset="1" stop-color="#7c5cf6" stop-opacity="0"/>
    </radialGradient>
    <radialGradient id="glowB" cx="0.75" cy="0.72" r="0.55">
      <stop offset="0" stop-color="#ec4899" stop-opacity="0.65"/>
      <stop offset="1" stop-color="#ec4899" stop-opacity="0"/>
    </radialGradient>
    <radialGradient id="glowC" cx="0.6" cy="0.18" r="0.4">
      <stop offset="0" stop-color="#60a5fa" stop-opacity="0.5"/>
      <stop offset="1" stop-color="#60a5fa" stop-opacity="0"/>
    </radialGradient>
    <filter id="soft" x="-40%" y="-40%" width="180%" height="180%">
      <feGaussianBlur stdDeviation="46"/>
    </filter>
  </defs>
  <rect width="800" height="1000" fill="url(#bg)"/>
  <circle cx="260" cy="300" r="300" fill="url(#glowA)" filter="url(#soft)"/>
  <circle cx="600" cy="720" r="280" fill="url(#glowB)" filter="url(#soft)"/>
  <circle cx="480" cy="180" r="200" fill="url(#glowC)" filter="url(#soft)"/>
  <g fill="none" stroke="#a78bfa" stroke-opacity="0.35">
    <circle cx="400" cy="500" r="210" stroke-width="1.4"/>
    <circle cx="400" cy="500" r="300" stroke-width="1" stroke-opacity="0.22" stroke-dasharray="2 10"/>
    <circle cx="400" cy="500" r="120" stroke-width="1.8" stroke-opacity="0.5"/>
  </g>
  <g fill="#e9d5ff">
    <circle cx="400" cy="290" r="4.5"/>
    <circle cx="610" cy="500" r="3.5" opacity="0.85"/>
    <circle cx="400" cy="710" r="3" opacity="0.7"/>
    <circle cx="190" cy="500" r="4" opacity="0.9"/>
    <circle cx="548" cy="352" r="2.6" opacity="0.6"/>
    <circle cx="252" cy="648" r="2.6" opacity="0.6"/>
    <circle cx="140" cy="180" r="2" opacity="0.5"/>
    <circle cx="660" cy="140" r="2.4" opacity="0.55"/>
    <circle cx="700" cy="880" r="2" opacity="0.5"/>
    <circle cx="120" cy="840" r="2.6" opacity="0.55"/>
    <circle cx="330" cy="120" r="1.8" opacity="0.45"/>
    <circle cx="520" cy="920" r="1.8" opacity="0.45"/>
  </g>
  <path d="M400 430 L430 500 L400 570 L370 500 Z" fill="#f8fafc" opacity="0.92"/>
</svg>
