<svg xmlns="http://www.w3.org/2000/svg" width="800" height="1000" viewBox="0 0 800 1000">
  <defs>
    <linearGradient id="bg" x1="0" y1="0" x2="1" y2="1">
      <stop offset="0" stop-color="#1d0a1a"/>
      <stop offset="1" stop-color="#3b1030"/>
    </linearGradient>
    <radialGradient id="glowA" cx="0.62" cy="0.35" r="0.6">
      <stop offset="0" stop-color="#ec4899" stop-opacity="0.8"/>
      <stop offset="1" stop-color="#ec4899" stop-opacity="0"/>
    </radialGradient>
    <radialGradient id="glowB" cx="0.25" cy="0.75" r="0.55">
      <stop offset="0" stop-color="#f59e0b" stop-opacity="0.5"/>
      <stop offset="1" stop-color="#f59e0b" stop-opacity="0"/>
    </radialGradient>
    <filter id="soft" x="-40%" y="-40%" width="180%" height="180%">
      <feGaussianBlur stdDeviation="46"/>
    </filter>
  </defs>
  <rect width="800" height="1000" fill="url(#bg)"/>
  <circle cx="500" cy="340" r="290" fill="url(#glowA)" filter="url(#soft)"/>
  <circle cx="220" cy="740" r="260" fill="url(#glowB)" filter="url(#soft)"/>
  <g fill="none" stroke="#fbcfe8" stroke-opacity="0.4">
    <circle cx="330" cy="430" r="150" stroke-width="1.6"/>
    <circle cx="500" cy="600" r="190" stroke-width="1.2" stroke-opacity="0.3"/>
    <path d="M330 430 C 400 470, 430 540, 500 600" stroke-width="1.6" stroke-dasharray="2 9"/>
  </g>
  <g fill="#fdf2f8">
    <circle cx="330" cy="430" r="8"/>
    <circle cx="500" cy="600" r="6" opacity="0.9"/>
    <circle cx="430" cy="280" r="3.4" opacity="0.7"/>
    <circle cx="620" cy="480" r="3" opacity="0.65"/>
    <circle cx="240" cy="580" r="3" opacity="0.65"/>
    <circle cx="560" cy="760" r="2.6" opacity="0.55"/>
    <circle cx="150" cy="240" r="2.4" opacity="0.5"/>
    <circle cx="680" cy="180" r="2" opacity="0.5"/>
    <circle cx="700" cy="860" r="2.4" opacity="0.5"/>
    <circle cx="120" cy="900" r="2" opacity="0.45"/>
    <circle cx="400" cy="110" r="1.8" opacity="0.4"/>
  </g>
</svg>
