<svg xmlns="http://www.w3.org/2000/svg" width="800" height="1000" viewBox="0 0 800 1000">
  <defs>
    <linearGradient id="bg" x1="0" y1="0" x2="1" y2="1">
      <stop offset="0" stop-color="#04161a"/>
      <stop offset="1" stop-color="#0a2b33"/>
    </linearGradient>
    <radialGradient id="glowA" cx="0.35" cy="0.62" r="0.6">
      <stop offset="0" stop-color="#0e9488" stop-opacity="0.85"/>
      <stop offset="1" stop-color="#0e9488" stop-opacity="0"/>
    </radialGradient>
    <radialGradient id="glowB" cx="0.72" cy="0.25" r="0.5">
      <stop offset="0" stop-color="#2dd4bf" stop-opacity="0.55"/>
      <stop offset="1" stop-color="#2dd4bf" stop-opacity="0"/>
    </radialGradient>
    <filter id="soft" x="-40%" y="-40%" width="180%" height="180%">
      <feGaussianBlur stdDeviation="44"/>
    </filter>
  </defs>
  <rect width="800" height="1000" fill="url(#bg)"/>
  <circle cx="280" cy="620" r="300" fill="url(#glowA)" filter="url(#soft)"/>
  <circle cx="580" cy="250" r="240" fill="url(#glowB)" filter="url(#soft)"/>
  <g fill="none" stroke="#5eead4" stroke-opacity="0.4">
    <path d="M240 200 C 240 460, 240 460, 240 800" stroke-width="2"/>
    <path d="M240 340 C 240 470, 560 430, 560 560" stroke-width="1.6" stroke-dasharray="1 8"/>
    <path d="M560 560 C 560 660, 300 640, 240 720" stroke-width="1.6" stroke-dasharray="1 8"/>
  </g>
  <g fill="#ccfbf1">
    <circle cx="240" cy="200" r="9"/>
    <circle cx="240" cy="340" r="6" opacity="0.9"/>
    <circle cx="560" cy="560" r="9"/>
    <circle cx="240" cy="720" r="7" opacity="0.9"/>
    <circle cx="240" cy="800" r="5" opacity="0.7"/>
    <circle cx="620" cy="180" r="3" opacity="0.6"/>
    <circle cx="680" cy="760" r="2.6" opacity="0.5"/>
    <circle cx="120" cy="120" r="2.2" opacity="0.5"/>
    <circle cx="700" cy="420" r="2.2" opacity="0.5"/>
    <circle cx="150" cy="900" r="2.6" opacity="0.55"/>
    <circle cx="420" cy="90" r="1.8" opacity="0.4"/>
    <circle cx="480" cy="880" r="2" opacity="0.45"/>
  </g>
</svg>
