<svg xmlns="http://www.w3.org/2000/svg" width="800" height="1000" viewBox="0 0 800 1000">
  <defs>
    <linearGradient id="bg" x1="0" y1="0" x2="1" y2="1">
      <stop offset="0" stop-color="#050d21"/>
      <stop offset="1" stop-color="#0c1f4d"/>
    </linearGradient>
    <radialGradient id="glowA" cx="0.4" cy="0.4" r="0.62">
      <stop offset="0" stop-color="#2563eb" stop-opacity="0.85"/>
      <stop offset="1" stop-color="#2563eb" stop-opacity="0"/>
    </radialGradient>
    <radialGradient id="glowB" cx="0.78" cy="0.78" r="0.5">
      <stop offset="0" stop-color="#7c5cf6" stop-opacity="0.6"/>
      <stop offset="1" stop-color="#7c5cf6" stop-opacity="0"/>
    </radialGradient>
    <filter id="soft" x="-40%" y="-40%" width="180%" height="180%">
      <feGaussianBlur stdDeviation="46"/>
    </filter>
  </defs>
  <rect width="800" height="1000" fill="url(#bg)"/>
  <circle cx="330" cy="400" r="300" fill="url(#glowA)" filter="url(#soft)"/>
  <circle cx="620" cy="760" r="240" fill="url(#glowB)" filter="url(#soft)"/>
  <g fill="none" stroke="#93c5fd" stroke-opacity="0.4">
    <circle cx="400" cy="500" r="90" stroke-width="1.8" stroke-opacity="0.55"/>
    <circle cx="400" cy="500" r="170" stroke-width="1.3"/>
    <circle cx="400" cy="500" r="260" stroke-width="1" stroke-opacity="0.28"/>
    <circle cx="400" cy="500" r="350" stroke-width="0.8" stroke-opacity="0.18" stroke-dasharray="2 10"/>
  </g>
  <g fill="#dbeafe">
    <circle cx="400" cy="500" r="7"/>
    <circle cx="490" cy="500" r="3.2" opacity="0.8"/>
    <circle cx="400" cy="330" r="3.2" opacity="0.75"/>
    <circle cx="230" cy="500" r="3.6" opacity="0.8"/>
    <circle cx="400" cy="760" r="3" opacity="0.6"/>
    <circle cx="580" cy="320" r="2.6" opacity="0.6"/>
    <circle cx="200" cy="700" r="2.6" opacity="0.6"/>
    <circle cx="660" cy="580" r="2.2" opacity="0.5"/>
    <circle cx="130" cy="300" r="2" opacity="0.45"/>
    <circle cx="670" cy="120" r="2" opacity="0.45"/>
    <circle cx="140" cy="880" r="2.2" opacity="0.5"/>
  </g>
</svg>
