<svg width="1200" height="760" viewBox="0 0 1200 760" fill="none" xmlns="http://www.w3.org/2000/svg">
  <defs>
    <linearGradient id="bg" x1="0" y1="0" x2="1200" y2="760" gradientUnits="userSpaceOnUse">
      <stop stop-color="#FF9500"/>
      <stop offset="1" stop-color="#FF2D55"/>
    </linearGradient>
  </defs>
  <rect width="1200" height="760" fill="url(#bg)"/>
  <rect x="76" y="68" width="1048" height="624" rx="32" fill="rgba(20,20,24,0.34)" stroke="rgba(255,255,255,0.38)"/>
  <rect x="112" y="124" width="976" height="76" rx="16" fill="rgba(255,255,255,0.12)"/>
  <rect x="112" y="226" width="646" height="430" rx="20" fill="rgba(20,20,24,0.5)"/>
  <rect x="782" y="226" width="306" height="278" rx="20" fill="rgba(255,255,255,0.12)"/>
  <rect x="782" y="520" width="306" height="136" rx="20" fill="rgba(20,20,24,0.45)"/>
  <g stroke="#65F6A4" stroke-width="6" stroke-linecap="round">
    <line x1="156" y1="292" x2="414" y2="292"/>
    <line x1="156" y1="336" x2="364" y2="336"/>
    <line x1="156" y1="380" x2="448" y2="380"/>
    <line x1="156" y1="424" x2="398" y2="424"/>
  </g>
  <g fill="#FFFFFF">
    <circle cx="180" cy="162" r="8"/>
    <circle cx="214" cy="162" r="8" fill-opacity="0.78"/>
    <circle cx="248" cy="162" r="8" fill-opacity="0.58"/>
  </g>
  <text x="134" y="112" fill="white" fill-opacity="0.92" font-family="Inter, Arial, sans-serif" font-size="30" font-weight="700">Real-Time Collaborative Editor</text>
  <text x="806" y="286" fill="white" fill-opacity="0.86" font-family="Inter, Arial, sans-serif" font-size="18">Live Cursors</text>
  <text x="806" y="560" fill="white" fill-opacity="0.86" font-family="Inter, Arial, sans-serif" font-size="18">Shared Terminal</text>
</svg>
