<svg width="1400" height="900" viewBox="0 0 1400 900" fill="none" xmlns="http://www.w3.org/2000/svg">
  <defs>
    <linearGradient id="bg" x1="0" y1="0" x2="1400" y2="900" gradientUnits="userSpaceOnUse">
      <stop stop-color="#34C759"/>
      <stop offset="1" stop-color="#007AFF"/>
    </linearGradient>
    <linearGradient id="panel" x1="0" y1="0" x2="1" y2="1">
      <stop stop-color="white" stop-opacity="0.28"/>
      <stop offset="1" stop-color="white" stop-opacity="0.07"/>
    </linearGradient>
  </defs>
  <rect width="1400" height="900" fill="url(#bg)"/>
  <rect x="84" y="76" width="1232" height="748" rx="34" fill="url(#panel)" stroke="rgba(255,255,255,0.52)"/>
  <rect x="146" y="146" width="454" height="244" rx="24" fill="rgba(255,255,255,0.18)"/>
  <rect x="146" y="418" width="454" height="336" rx="24" fill="rgba(255,255,255,0.13)"/>
  <rect x="626" y="146" width="628" height="608" rx="24" fill="rgba(255,255,255,0.16)"/>
  <path d="M686 640C774 558 860 550 954 602C1038 648 1120 644 1206 578" stroke="white" stroke-width="13" stroke-linecap="round"/>
  <circle cx="686" cy="640" r="14" fill="white" fill-opacity="0.78"/>
  <circle cx="954" cy="602" r="14" fill="white" fill-opacity="0.9"/>
  <circle cx="1206" cy="578" r="14" fill="white"/>
  <text x="146" y="120" fill="white" fill-opacity="0.92" font-family="Inter, Arial, sans-serif" font-size="34" font-weight="700">Distributed Storage Snapshot 01</text>
  <text x="146" y="188" fill="white" fill-opacity="0.84" font-family="Inter, Arial, sans-serif" font-size="22">Panel Group 1</text>
  <text x="646" y="188" fill="white" fill-opacity="0.84" font-family="Inter, Arial, sans-serif" font-size="22">Result Surface DS-01</text>
</svg>
